<?xml version="1.0" encoding="UTF-8" standalone="no"?>
<svg
   id="Layer_1"
   viewBox="0 0 66.1 24.7"
   version="1.1"
   sodipodi:docname="blockflow.svg"
   inkscape:version="1.4.3 (0d15f75042, 2025-12-25)"
   xmlns:inkscape="http://www.inkscape.org/namespaces/inkscape"
   xmlns:sodipodi="http://sodipodi.sourceforge.net/DTD/sodipodi-0.dtd"
   xmlns="http://www.w3.org/2000/svg"
   xmlns:svg="http://www.w3.org/2000/svg">
  <defs
     id="defs7" />
  <sodipodi:namedview
     id="namedview7"
     pagecolor="#ffffff"
     bordercolor="#000000"
     borderopacity="0.25"
     inkscape:showpageshadow="2"
     inkscape:pageopacity="0.0"
     inkscape:pagecheckerboard="0"
     inkscape:deskcolor="#d1d1d1"
     showgrid="false"
     inkscape:zoom="6.4069593"
     inkscape:cx="56.501061"
     inkscape:cy="22.39752"
     inkscape:window-width="1896"
     inkscape:window-height="1030"
     inkscape:window-x="0"
     inkscape:window-y="0"
     inkscape:window-maximized="1"
     inkscape:current-layer="g6" />
  <style
     id="style1">.st0{fill:#fff}.st1{fill:#f9a83a}</style>
  <switch
     id="switch7">
    <g
       id="g7">
      <g
         id="g6">
        <g
           id="text7"
           style="opacity:1;stroke:#ffffff;stroke-opacity:1"
           transform="scale(0.95458759,1.0475728)">
          <path
             style="font-size:17.819px;line-height:0.8;font-family:'Grape Nuts';-inkscape-font-specification:'Grape Nuts';text-align:center;letter-spacing:0px;baseline-shift:baseline;text-anchor:middle;display:inline;overflow:visible;vector-effect:none;fill:#017460;stroke-linecap:round;stroke-linejoin:round;paint-order:markers stroke fill;enable-background:accumulate;stop-color:#000000;stop-opacity:1;stroke:#ffffff;stroke-opacity:1"
             d="m 10.824219,3.3300781 c -0.334788,0 -0.671448,0.029461 -1.0039065,0.091797 -0.2794113,0.05239 -0.5542816,0.1220655 -0.8261719,0.2070313 -0.2843753,0.088867 -0.5733664,0.2075172 -0.8808593,0.3828124 -0.025207,0.01437 -0.046724,0.015925 -0.072266,0.03125 a 2.2584959,2.2584959 0 0 0 -0.089844,0.058594 C 7.9762885,4.0848181 8.0160185,4.0727445 8.046875,4.0566406 7.6973199,4.1877174 7.283747,4.3899852 6.9179687,4.8203125 6.5306742,5.2759532 6.3046875,5.9559076 6.3046875,6.4960937 c 0,0.3898049 0.2649596,0.6807972 0.4335937,1.0371094 C 6.5777654,7.8244934 6.4351433,8.0765002 6.2460937,8.4335938 a 2.2584959,2.2584959 0 0 0 -0.017578,0.03125 C 5.9031687,9.1030244 5.5701974,9.7962888 5.2265625,10.544922 a 2.2584959,2.2584959 0 0 0 -0.00781,0.01367 c -0.3317829,0.737295 -0.6437089,1.475982 -0.9394531,2.214844 -0.3005548,0.738863 -0.5610981,1.4372 -0.78125,2.097656 a 2.2584959,2.2584959 0 0 0 -0.013672,0.03711 c -0.2149245,0.685072 -0.3652379,1.27436 -0.4277344,1.900391 -0.087817,0.832729 0.3239281,2.163716 1.2363281,2.796875 0.5006642,0.351646 1.1766084,0.642578 1.9160157,0.642578 0.4211985,0 0.9447221,-0.126318 1.4355468,-0.398438 0.351511,0.07973 0.7081496,0.130232 0.9843751,0.0957 a 2.2584959,2.2584959 0 0 0 0.039063,-0.0039 c 0.4334527,-0.06192 0.9020267,-0.159401 1.4394532,-0.287109 0.628307,-0.146118 1.259462,-0.351144 1.898437,-0.607422 0.73566,-0.277161 1.433995,-0.641785 2.080079,-1.087891 a 2.2584959,2.2584959 0 0 0 0.0293,-0.01953 c 0.0682,-0.04871 0.113067,-0.110658 0.179688,-0.160156 0.169609,0.375891 0.35781,0.756764 0.710937,1.041015 0.476006,0.38447 1.186656,0.732422 1.984375,0.732422 0.39319,0 0.982116,-0.04232 1.648438,-0.550781 0.254274,-0.192571 0.519279,-0.524234 0.742187,-0.947266 0.491127,0.308128 1.03534,0.525838 1.576172,0.591797 l -0.09766,-0.01563 0.214844,0.03711 a 2.2584959,2.2584959 0 0 0 0.371093,0.0293 h 0.212891 c 0.762452,0 1.534906,-0.145261 2.244141,-0.449219 a 2.2584959,2.2584959 0 0 0 0.04883,-0.02148 c 0.39293,-0.179625 0.739141,-0.43684 1.09375,-0.679687 0.296175,0.443823 0.590023,0.902004 1.013672,1.207031 0.748873,0.539189 1.650217,0.746094 2.460937,0.746094 1.058652,0 2.130403,-0.294309 3.035156,-0.851563 0.144158,-0.08741 0.270906,-0.224948 0.41211,-0.320312 0.153033,0.213499 0.255172,0.448086 0.486328,0.617187 0.463896,0.342984 1.12146,0.626954 1.804687,0.626954 0.472751,0 1.045554,-0.127575 1.535157,-0.433594 a 2.2584959,2.2584959 0 0 0 0.130859,-0.08789 c 0.140756,-0.102368 0.29772,-0.315682 0.453125,-0.496094 0.19098,0.08455 0.396829,0.190467 0.582031,0.257813 a 2.2584959,2.2584959 0 0 0 0.05859,0.01953 c 0.214122,0.07138 0.46868,0.150391 0.892578,0.150391 0.03948,0 0.0896,-0.04474 0.13086,-0.04687 a 2.2584959,2.2584959 0 0 0 0.02539,0.03711 c 0.329722,0.476265 1.097936,1.205078 2.195313,1.205078 0.620869,0 1.118775,-0.217289 1.464843,-0.433593 a 2.2584959,2.2584959 0 0 0 0.158204,-0.107422 c 0.208126,-0.156099 0.435179,-0.4513 0.65039,-0.763672 0.472815,0.350783 1.102671,0.679687 1.84375,0.679687 0.392215,0 0.980386,-0.04227 1.644531,-0.546875 0.254906,-0.192256 0.520204,-0.526186 0.744141,-0.951172 0.491127,0.308128 1.037293,0.525838 1.578125,0.591797 l -0.09766,-0.01563 0.21289,0.03711 a 2.2584959,2.2584959 0 0 0 0.371094,0.0293 h 0.214844 c 0.762451,0 1.534906,-0.145261 2.244141,-0.449219 a 2.2584959,2.2584959 0 0 0 0.04883,-0.02148 c 0.397225,-0.181588 0.747474,-0.441304 1.105468,-0.6875 0.491898,0.489203 1.315564,0.837891 2.017579,0.837891 0.791873,0 1.394496,-0.273223 1.888671,-0.572266 0.476242,-0.280828 0.911668,-0.632939 1.28125,-1.041015 0.02971,-0.03208 0.09005,-0.09209 0.126954,-0.13086 0.268705,0.363353 0.50913,0.752454 0.873046,1.025391 0.722705,0.542025 1.57564,0.764394 2.361329,0.804688 a 2.2584959,2.2584959 0 0 0 0.0332,0.002 c 0.908126,0.03363 1.720575,-0.296139 2.351562,-0.716797 0.597277,-0.398185 1.105401,-0.901655 1.539063,-1.46875 a 2.2584959,2.2584959 0 0 0 0.01953,-0.02539 c 0.447,-0.60173 0.797924,-1.272458 1.029297,-1.984375 a 2.2584959,2.2584959 0 0 0 0.002,-0.0059 c 0.173246,-0.537064 0.287109,-1.09332 0.287109,-1.691406 0,-0.664447 -0.140229,-1.541535 -0.855468,-2.296875 -0.440149,-0.4766577 -1.219298,-0.9765629 -2.097657,-0.9765629 -0.720998,0 -1.42252,0.3419364 -1.839843,0.7128909 -0.220091,0.195636 -0.345487,0.461323 -0.484375,0.714844 l 0.02734,0.03516 c -0.0076,-0.01071 -0.02522,-0.01672 -0.0332,-0.02734 -0.0076,0.01402 -0.01996,0.02496 -0.02734,0.03906 -0.02476,-0.03385 -0.0039,-0.05149 -0.03125,-0.08594 -0.458204,-0.561665 -1.337365,-0.9960937 -1.996093,-0.9960937 -0.490785,0 -0.849723,0.1247924 -1.148438,0.2539062 -0.06229,0.023725 -0.119405,0.053691 -0.179687,0.080079 C 57.48254,9.8525842 57.40207,9.6732871 57.244141,9.5234375 56.811408,9.1173129 56.09441,8.765625 55.425781,8.765625 c -0.839877,0 -1.723758,0.6064043 -2.195312,1.2226563 -0.22737,-0.1038783 -0.439017,-0.1508893 -0.673828,-0.2089844 -0.0034,-0.0035 -0.0024,-0.010209 -0.0059,-0.013672 -0.444022,-0.4440219 -0.903892,-0.6086586 -1.255859,-0.6972656 -0.374586,-0.097183 -0.754935,-0.1425781 -1.125,-0.1425781 -0.183398,0 -0.34553,0.1017552 -0.527344,0.1230468 a 2.2584959,2.2584959 0 0 0 0.06055,-0.1015625 C 49.867271,8.6517896 49.957334,8.3879881 50.035156,8.125 c 0.08015,-0.234936 0.145019,-0.4803582 0.189453,-0.734375 0.04482,-0.1546726 0.09961,-0.1794052 0.09961,-0.7324219 0,-0.5546859 -0.263338,-1.3847405 -0.847657,-1.9433594 C 49.044058,4.3080052 48.325754,3.953125 47.65625,3.953125 c -0.215542,0 -0.426226,0.142418 -0.646484,0.2109375 -0.124579,-0.089216 -0.176172,-0.2338609 -0.314454,-0.3066406 -0.529149,-0.2785 -1.157703,-0.4375 -1.765625,-0.4375 -0.779059,0 -1.527058,0.2560181 -2.140625,0.6230468 -0.680733,0.3964827 -1.233708,0.9665121 -1.626953,1.5957032 a 2.2584959,2.2584959 0 0 0 -0.0039,0.00781 c -0.247964,0.400558 -0.464367,0.8357535 -0.732422,1.4101562 a 2.2584959,2.2584959 0 0 0 -0.0098,0.019531 c -0.153899,0.3385777 -0.322613,0.7533538 -0.486329,1.1425781 -0.0088,0.00797 -0.0168,0.015475 -0.02539,0.023437 0.135748,-0.3095244 0.353516,-0.4970722 0.353515,-0.9433594 0,-0.5880522 -0.334845,-1.5177994 -0.976562,-2.0136719 -0.641717,-0.4958724 -1.252318,-0.5468749 -1.673828,-0.546875 -0.632505,10e-8 -1.150087,0.2039986 -1.554688,0.4316407 -0.56475,0.3118663 -1.013948,0.8066706 -1.27539,1.296875 a 2.2584959,2.2584959 0 0 0 -0.01172,0.023437 c -0.336367,0.6487084 -0.708923,1.3731562 -1.115234,2.1738281 -0.01761,0.034708 -0.03133,0.082155 -0.04883,0.1171875 C 33.46775,8.6598779 33.387334,8.4457077 33.25,8.3574219 32.507635,7.8801872 31.855829,7.8378906 31.28125,7.8378906 c -1.03161,0 -1.705146,0.3452835 -2.429688,0.7460938 a 2.2584959,2.2584959 0 0 0 -0.01758,0.00977 c -0.81684,0.4616922 -1.54655,1.0813999 -2.279297,1.841797 a 2.2584959,2.2584959 0 0 0 -0.0078,0.0078 c -0.0034,0.0035 -0.0064,0.0082 -0.0098,0.01172 -0.41968,-0.330528 -0.871065,-0.5526472 -1.36914,-0.6757811 -0.0034,-0.0035 -0.0024,-0.010209 -0.0059,-0.013672 C 24.718091,9.3216062 24.260169,9.1569669 23.908203,9.0683594 23.532997,8.9708253 23.151947,8.9257813 22.78125,8.9257813 c -0.182754,0 -0.344206,0.1019019 -0.525391,0.1230468 a 2.2584959,2.2584959 0 0 0 0.05859,-0.1015625 C 22.478599,8.6517896 22.568662,8.3879881 22.646484,8.125 c 0.08205,-0.2405111 0.148874,-0.4914297 0.19336,-0.7519531 0.04407,-0.1463838 0.09766,-0.1750549 0.09766,-0.7148438 0,-0.5546859 -0.265291,-1.3847405 -0.849609,-1.9433594 -0.43251,-0.4068221 -1.148876,-0.7617187 -1.81836,-0.7617187 -0.942826,0 -2.026804,0.7490402 -2.414062,1.4375 a 2.2584959,2.2584959 0 0 0 -0.03711,0.066406 c -0.192316,0.3708961 -0.40468,0.8178042 -0.648437,1.3535157 -0.0019,0.00412 -0.0039,0.00955 -0.0059,0.013672 -7.11e-4,0.00156 -0.0012,0.00234 -0.002,0.00391 -0.254151,0.5472412 -0.513296,1.1480479 -0.783203,1.8105469 L 16.382812,8.625 c -0.131376,0.3164969 -0.261536,0.6550978 -0.392578,0.9824219 -3.14e-4,7.855e-4 -0.0016,0.00117 -0.002,0.00195 C 15.870778,9.4882844 15.665552,9.4648217 15.533203,9.3535156 l -0.01563,0.037109 c 0.0052,-0.011376 0.0066,-0.027559 0.01172,-0.039063 -0.004,-0.00335 -0.0097,-0.00447 -0.01367,-0.00781 0.0055,-0.013433 0.02005,-0.021683 0.02539,-0.035156 0.121629,-0.2827663 0.220206,-0.5992468 0.261718,-0.9550782 0.03212,-0.2095731 0.06055,-0.4211782 0.06055,-0.6445312 0,-1.1137944 -0.57118,-2.3422323 -1.43164,-3.0625 C 13.770135,4.0859729 12.967397,3.6753305 12.121094,3.4785156 A 2.2584959,2.2584959 0 0 0 11.980469,3.4492188 C 11.787747,3.4170984 11.596418,3.3924655 11.404297,3.375 l 0.238281,0.035156 C 11.36764,3.3551686 11.091756,3.3300781 10.824219,3.3300781 Z m -0.798828,0.953125 c -0.042304,0.00846 -0.082224,0.022132 -0.1230472,0.03125 -0.00847,0.00225 -0.018918,0.00161 -0.027344,0.00391 z m 1.935547,0.064453 0.02734,0.00781 c -0.0051,-0.00156 -0.01055,-4.163e-4 -0.01563,-0.00195 -0.004,-0.00119 -0.0077,-0.00467 -0.01172,-0.00586 z M 13.589844,5.125 l 0.04687,0.035156 c -0.01036,-0.00805 -0.0209,-0.00772 -0.03125,-0.015625 -0.0065,-0.00492 -0.0091,-0.014691 -0.01563,-0.019531 z m 34.533203,0.095703 0.03516,0.056641 c -0.0057,-0.00964 -0.01959,-0.015763 -0.02539,-0.025391 -0.0058,-0.00947 -0.0038,-0.021849 -0.0098,-0.03125 z m -12.03711,1.0722656 c -0.02803,0.032031 -0.04691,0.076915 -0.07422,0.109375 0.0019,-0.00238 0.0083,-0.031379 0.0098,-0.033203 z m 5.683594,0.025391 c -0.01998,0.026643 -0.01896,0.039267 -0.03711,0.064453 -0.01266,0.019076 -0.03232,0.033504 -0.04492,0.052734 z M 29.958984,9.2675781 c -0.0029,7.514e-4 -0.005,0.00315 -0.0078,0.00391 -0.03062,0.00934 -0.06742,0.015843 -0.09766,0.025391 z m 2.689453,0.4921875 c 0.161284,0.07343 0.40082,0.1109573 0.476563,0.1738282 -0.0019,0.00448 -0.0039,0.00918 -0.0059,0.013672 a 2.2584959,2.2584959 0 0 0 -0.470704,-0.1875 z m 24.751954,0.3378904 c -0.01739,0.0077 -0.02959,0.02342 -0.04687,0.03125 -0.04376,0.02242 -0.09418,0.03691 -0.136719,0.06055 z m -30.488282,0.597657 0.03516,0.03711 c -0.0058,-0.0064 -0.01564,-0.0074 -0.02148,-0.01367 -0.0061,-0.0065 -0.0075,-0.017 -0.01367,-0.02344 z m 27.386719,0 0.03711,0.03711 c -0.0064,-0.007 -0.01697,-0.0087 -0.02344,-0.01563 -0.0057,-0.0061 -0.0079,-0.01544 -0.01367,-0.02148 z m -15.376953,0.11914 c 8.46e-4,0.0055 0.0089,0.01591 0.0098,0.02149 -9.55e-4,0.0027 -0.003,0.0051 -0.0039,0.0078 z m 25.894531,0.460938 0.115235,0.230468 c 0.102409,0.238943 0.128906,0.459497 0.128906,0.603516 0,0.01371 -0.02838,0.04901 -0.0293,0.06445 -0.02509,-0.266292 0.03973,-0.452962 -0.214844,-0.898437 z m -54.792968,1.695312 c 0.05459,0.0034 0.109776,0.0045 0.214843,0.02734 a 2.2584959,2.2584959 0 0 0 0.01953,0.0039 c 0.221342,0.04611 0.477387,0.109053 0.765625,0.191406 a 2.2584959,2.2584959 0 0 0 0.09766,0.02734 c 0.04029,0.0096 0.05489,0.01416 0.09375,0.02344 -0.132302,0.107367 -0.193957,0.185667 -0.361328,0.304687 a 2.2584959,2.2584959 0 0 0 -0.0039,0.002 c -0.254669,0.181907 -0.55069,0.343409 -0.9003902,0.482422 -0.1778555,0.06743 -0.3372764,0.104671 -0.5078125,0.160156 0.03346,-0.07802 0.048893,-0.133027 0.083984,-0.21289 0.1478965,-0.329887 0.3339357,-0.673599 0.4980474,-1.009766 z m 55.121093,0.398438 -0.01953,0.171875 c 0.0059,-0.0382 0.0044,-0.08513 0.0098,-0.123047 0.0016,-0.01775 0.0084,-0.03083 0.0098,-0.04883 z M 31.371094,15.75 c -0.0029,0.01178 -0.0011,0.02524 -0.0039,0.03711 -0.0078,0.04305 -0.02161,0.0719 -0.0293,0.115235 z m -15.416016,0.544922 -0.02344,0.02734 c 0.0041,-0.0046 0.0057,-0.01102 0.0098,-0.01563 0.0038,-0.0044 0.0099,-0.0073 0.01367,-0.01172 z M 4.0097656,16.494141 c -0.00241,0.01686 0.0079,0.02817 0.00586,0.04492 -0.00268,0.02721 -0.01719,0.05472 -0.019531,0.08203 z m 29.6367184,0.52539 -0.07617,0.06836 c 0.0031,-0.0027 0.0028,-0.01092 0.0059,-0.01367 0.02245,-0.02125 0.04792,-0.03323 0.07031,-0.05469 z m 6.054688,1.3125 -0.115235,0.0918 c 0.02062,-0.01546 0.03967,-0.05504 0.06055,-0.07227 0.01641,-0.0133 0.03863,-0.0058 0.05469,-0.01953 z m 3.044922,0.292969 -0.08398,0.152344 c 0.01046,-0.01744 0.0128,-0.06163 0.02344,-0.08008 0.01907,-0.03458 0.0421,-0.03536 0.06055,-0.07227 z m -0.361328,0.191406 c 0.0014,0.0011 0.0045,8.31e-4 0.0059,0.002 0.0027,0.0022 0.0031,0.0056 0.0059,0.0078 z"
             id="path8" />
          <path
             style="font-size:17.819px;line-height:0.8;font-family:'Grape Nuts';-inkscape-font-specification:'Grape Nuts';text-align:center;letter-spacing:0px;baseline-shift:baseline;text-anchor:middle;display:inline;overflow:visible;vector-effect:none;fill:#ffffff;stroke-linecap:round;stroke-linejoin:round;paint-order:markers stroke fill;enable-background:accumulate;stop-color:#000000;stop-opacity:1;stroke:#ffffff;stroke-opacity:1"
             d="M 8.348197,17.705061 Q 8.063093,17.740699 7.902722,17.580328 7.76017,17.437776 7.76017,17.259586 q 0,-0.142552 0.089095,-0.267285 0.106914,-0.106914 0.302923,-0.142552 0.463294,-0.07128 1.158235,-0.249466 0.71276,-0.17819 1.461158,-0.463294 0.766217,-0.302923 1.389882,-0.748398 0.801855,-0.570208 1.300787,-1.104778 0.498932,-0.53457 0.801855,-1.282968 0.08909,-0.231647 0.08909,-0.35638 0,-0.213828 -0.196009,-0.374199 -0.17819,-0.160371 -0.53457,-0.516751 -0.35638,-0.35638 -0.801855,-0.445475 -0.427656,-0.106914 -1.176054,-0.285104 -0.498932,-0.142552 -0.926588,-0.231647 -0.409837,-0.0891 -0.7662169,-0.0891 -0.213828,0 -0.338561,-0.142552 -0.124733,-0.142552 -0.124733,-0.320742 0,-0.3029232 0.285104,-0.3741992 0.3029229,-0.089095 0.7127599,-0.231647 0.427656,-0.142552 0.855312,-0.338561 0.427656,-0.196009 0.748398,-0.463294 0.320742,-0.267285 0.409837,-0.605846 0.03564,-0.160371 0.05346,-0.285104 0.03564,-0.142552 0.03564,-0.267285 0,-0.481113 -0.338561,-0.730579 -0.320742,-0.249466 -0.926588,-0.427656 -0.231647,-0.071276 -0.481113,-0.071276 -0.17819,0 -0.374199,0.053457 -0.17819,0.035638 -0.4811129,0.124733 -0.142552,0 -0.285104,0.089095 -0.142552,0.089095 -0.3920181,0.213828 -0.053457,0.017819 -0.106914,0.035638 -0.053457,0 -0.106914,0 -0.231647,0 -0.392018,-0.142552 -0.142552,-0.142552 -0.142552,-0.320742 0,-0.249466 0.302923,-0.35638 0.17819,-0.053457 0.338561,-0.160371 0.17819,-0.106914 0.4632941,-0.1960091 0.285104,-0.089095 0.5702079,-0.142552 0.285104,-0.053457 0.588027,-0.053457 0.196009,0 0.374199,0.035638 0.196009,0.017819 0.409837,0.053457 0.766217,0.1781901 1.372063,0.6949411 0.623665,0.516751 0.623665,1.336425 0,0.17819 -0.03564,0.374199 -0.01782,0.17819 -0.106914,0.374199 -0.231647,0.605846 -0.730579,1.015683 -0.481113,0.392018 -1.033502,0.6593032 0.03564,0 0.106914,0.01782 0.07128,0.01782 0.142552,0.03564 0.605846,0.160371 1.229511,0.302923 0.641484,0.124733 1.193873,0.694941 0.160371,0.160371 0.392018,0.374199 0.231647,0.196009 0.409837,0.481113 0.17819,0.285104 0.17819,0.659303 0,0.124733 -0.03564,0.285104 -0.01782,0.160371 -0.106914,0.338561 -0.374199,0.837493 -0.962226,1.496796 -0.570208,0.659303 -1.443339,1.282968 -0.748398,0.516751 -1.60371,0.837493 -0.837493,0.338561 -1.6037099,0.516751 -0.7483981,0.17819 -1.2473301,0.249466 z m -2.13828,0.285104 q -0.320742,0 -0.641484,-0.231647 Q 5.247691,17.54469 5.301148,17.045758 5.354605,16.493369 5.639709,15.5846 5.942632,14.675831 6.370288,13.62451 6.797944,12.55537 7.279057,11.48623 7.777989,10.399271 8.241283,9.4905018 q 0.481113,-0.908769 0.819674,-1.496796 0.160371,-0.285104 0.4989321,-0.285104 0.196009,0 0.35638,0.142552 0.1603709,0.142552 0.1247329,0.392018 v -0.017819 q -0.01782,0.17819 -0.1425519,0.552389 -0.124733,0.374199 -0.267285,0.588027 Q 9.4351561,9.6508728 9.150052,9.9537958 8.864948,10.2389 8.65112,10.648737 7.991817,11.878248 7.457247,13.072121 6.940496,14.248175 6.619754,15.22822 q -0.320742,0.962226 -0.374199,1.585891 -0.017819,0.124733 0.106914,0.267285 0.142552,0.142552 0.267285,0.285104 0.142552,0.142552 0.142552,0.285104 0,0.124733 -0.196009,0.249466 -0.142552,0.0891 -0.35638,0.0891 z m 10.780487,-0.694941 q -0.285104,0 -0.570208,-0.231647 -0.267285,-0.213828 -0.231647,-0.71276 0.05346,-0.463294 0.249466,-1.229511 0.213828,-0.784036 0.53457,-1.728443 0.338561,-0.944407 0.71276,-1.942271 0.392018,-1.015683 0.784036,-1.9600902 0.392018,-0.962226 0.748398,-1.728443 0.35638,-0.784036 0.605846,-1.265149 0.160371,-0.285104 0.445475,-0.285104 0.160371,0 0.285104,0.124733 0.124733,0.106914 0.124733,0.320742 0,0.071276 -0.05346,0.302923 -0.03564,0.231647 -0.124733,0.481113 -0.07128,0.249466 -0.160371,0.409837 -0.17819,0.285104 -0.427656,0.588027 -0.249466,0.302923 -0.445475,0.71276 -0.427656,0.9265882 -0.855312,1.9600902 -0.427656,1.015683 -0.784036,1.995728 -0.35638,0.980045 -0.588027,1.764081 -0.213828,0.784036 -0.249466,1.24733 0,0.124733 0.106914,0.267285 0.124733,0.142552 0.231647,0.285104 0.124733,0.142552 0.124733,0.285104 0,0.142552 -0.17819,0.267285 -0.08909,0.07128 -0.285104,0.07128 z m 4.668576,-0.855312 q -0.106914,0 -0.213828,0 -0.106914,-0.01782 -0.213828,-0.03564 -0.730579,-0.0891 -1.140416,-0.694941 -0.392018,-0.623665 -0.392018,-1.389882 0,-0.498932 0.196009,-1.051321 0.213828,-0.570208 0.659303,-1.033502 0.445475,-0.481113 1.033502,-0.766217 0.588027,-0.285104 1.193873,-0.285104 0.302923,0 0.570208,0.07128 0.285104,0.07128 0.285104,0.285104 0,0.142552 -0.160371,0.285104 -0.142552,0.124733 -0.392018,0.07128 -0.07128,-0.01782 -0.231647,-0.01782 -0.427656,0 -0.873131,0.231647 -0.445475,0.231647 -0.801855,0.623665 -0.35638,0.374199 -0.516751,0.837493 -0.124733,0.35638 -0.124733,0.71276 0,0.552389 0.249466,0.944407 0.267285,0.392018 0.605846,0.392018 0.0891,0.01782 0.160371,0.01782 0.0891,0 0.160371,0 0.784036,0 1.496796,-0.427656 0.730579,-0.445475 1.122597,-0.962226 0.196009,-0.302923 0.267285,-0.53457 0.07128,-0.249466 0.07128,-0.409837 0,-0.35638 -0.213828,-0.481113 -0.213828,-0.124733 -0.392018,-0.106914 -0.285104,0.03564 -0.552389,0.0891 -0.267285,0.03564 -0.463294,0.124733 -0.106914,0.03564 -0.160371,0.03564 -0.17819,0 -0.302923,-0.142552 -0.106914,-0.142552 -0.106914,-0.302923 0,-0.285104 0.267285,-0.374199 0.249466,-0.0891 0.588027,-0.160371 0.338561,-0.07128 0.694941,-0.106914 0.07128,-0.01782 0.124733,-0.01782 0.05346,0 0.124733,0 0.641484,0 0.997864,0.392018 0.35638,0.374199 0.35638,0.926588 0,0.338561 -0.160371,0.730579 -0.160371,0.392018 -0.516751,0.748398 -0.320742,0.409837 -0.819674,0.819674 -0.498932,0.409837 -1.122597,0.694941 -0.623665,0.267285 -1.354244,0.267285 z m 6.860301,0.801855 q -0.694941,0 -1.140416,-0.320742 -0.445475,-0.320742 -0.677122,-0.801855 -0.213828,-0.498932 -0.213828,-1.015683 0,-0.588027 0.267285,-1.140416 0.267285,-0.570208 0.659303,-1.06914 0.392018,-0.498932 0.766217,-0.89095 0.944407,-0.980045 1.764081,-1.443339 0.837493,-0.463294 1.336425,-0.463294 0.498932,0 0.748398,0.160371 0.249466,0.160371 0.338561,0.392018 0.106914,0.231647 0.124733,0.427656 0.03564,0.320742 -0.0891,0.53457 -0.124733,0.196009 -0.338561,0.196009 -0.196009,0 -0.392018,-0.17819 -0.196009,-0.17819 -0.338561,-0.392018 -0.463294,0.106914 -0.801855,0.213828 -0.338561,0.0891 -0.659303,0.285104 -0.302923,0.17819 -0.71276,0.53457 -0.730579,0.659303 -1.265149,1.389882 -0.516751,0.730579 -0.516751,1.568072 0,1.140416 1.176054,1.140416 0.766217,0 1.585891,-0.392018 0.819674,-0.409837 1.42552,-1.051321 0.142552,-0.142552 0.320742,-0.142552 0.142552,0 0.231647,0.0891 0.106914,0.08909 0.106914,0.231647 0,0.160371 -0.142552,0.285104 -0.855312,0.819674 -1.710624,1.336425 -0.837493,0.516751 -1.853176,0.516751 z m 5.737712,0.07128 q -0.249466,0 -0.481113,-0.17819 -0.231647,-0.160371 -0.231647,-0.588027 0,-0.05346 0,-0.106914 0,-0.07128 0.01782,-0.142552 0.392018,-2.209556 0.944407,-3.813266 0.552389,-1.60371 1.158235,-2.7975832 0.605846,-1.193873 1.104778,-2.156099 0.142552,-0.267285 0.374199,-0.392018 0.249466,-0.142552 0.463294,-0.142552 0.392018,0 0.392018,0.302923 0,0.213828 -0.213828,0.481113 -0.374199,0.427656 -0.837493,1.24733 -0.445475,0.819674 -0.89095,1.8353572 -0.445475,0.997864 -0.784036,2.013547 0.142552,-0.08909 0.285104,-0.160371 0.142552,-0.0891 0.267285,-0.160371 0.427656,-0.213828 0.980045,-0.463294 0.570208,-0.267285 1.140416,-0.463294 0.570208,-0.213828 1.015683,-0.285104 0.0891,-0.01782 0.196009,-0.03564 0.124733,-0.01782 0.231647,-0.01782 0.124733,0 0.196009,0.07128 0.0891,0.07128 0.0891,0.267285 0,0.35638 -0.196009,0.463294 -0.17819,0.106914 -0.392018,0.142552 -0.338561,0.03564 -0.873131,0.231647 -0.516751,0.17819 -1.06914,0.427656 -0.53457,0.231647 -0.944407,0.445475 -0.249466,0.0891 -0.445475,0.285104 -0.196009,0.17819 -0.285104,0.320742 -0.0891,0.124733 -0.01782,0.0891 0.05346,0.17819 0.302923,0.445475 0.249466,0.267285 0.588027,0.53457 0.35638,0.249466 0.694941,0.463294 0.35638,0.196009 0.588027,0.285104 0.409837,0.124733 0.570208,0.302923 0.17819,0.160371 0.17819,0.302923 0,0.142552 -0.142552,0.249466 -0.124733,0.106914 -0.320742,0.106914 -0.07128,0 -0.17819,-0.03564 -0.392018,-0.142552 -0.997864,-0.445475 -0.588027,-0.302923 -1.140416,-0.71276 -0.552389,-0.409837 -0.837493,-0.837493 h -0.01782 q -0.07128,0.392018 -0.17819,0.89095 -0.0891,0.498932 -0.07128,0.801855 0,0.106914 0.142552,0.249466 0.160371,0.124733 0.160371,0.285104 0,0.160371 -0.196009,0.302923 -0.142552,0.0891 -0.338561,0.0891 z m 6.005003,0.605846 q -0.17819,0 -0.338561,-0.231647 -0.142552,-0.231647 -0.142552,-0.819674 0,-0.71276 0.213828,-1.728443 0.231647,-1.015683 0.588027,-2.173918 0.374199,-1.158235 0.784036,-2.263013 h -0.01782 q -0.160371,0 -0.196009,-0.231647 -0.07128,-0.231647 0.106914,-0.445475 0.17819,-0.2138282 0.338561,-0.2138282 h 0.106914 q 0.409837,-1.015683 0.766217,-1.799719 0.374199,-0.801855 0.605846,-1.176054 0.35638,-0.570208 0.855312,-0.855312 0.498932,-0.3029231 0.997864,-0.3029231 0.374199,0 0.71276,0.1781901 0.338561,0.17819 0.570208,0.570208 0.213828,0.338561 0.213828,0.766217 0,0.285104 -0.0891,0.481113 -0.0891,0.196009 -0.231647,0.196009 -0.142552,0 -0.302923,-0.302923 -0.463294,-0.926588 -0.997864,-0.926588 -0.552389,0 -1.229511,1.033502 -0.106914,0.142552 -0.285104,0.516751 -0.17819,0.35638 -0.374199,0.784036 -0.196009,0.427656 -0.35638,0.784036 0.142552,-0.017819 0.249466,-0.017819 0.106914,0 0.213828,0 0.249466,0 0.53457,0.035638 0.285104,0.017819 0.748398,0.071276 0.0891,0.017819 0.17819,0.124733 0.0891,0.1069142 0.0891,0.2316472 0,0.07128 -0.07128,0.160371 -0.05346,0.07128 -0.231647,0.0891 -0.605846,0.07128 -1.158235,0.07128 -0.53457,0 -0.89095,0.03564 -0.267285,0.694941 -0.552389,1.568072 -0.285104,0.855312 -0.53457,1.746262 -0.249466,0.89095 -0.409837,1.674986 -0.142552,0.766217 -0.124733,1.265149 0,0.17819 0.0891,0.320742 0.0891,0.160371 0.0891,0.320742 0,0.07128 -0.05346,0.160371 -0.05346,0.106914 -0.196009,0.213828 -0.142552,0.0891 -0.267285,0.0891 z m 4.116189,-0.623665 q -0.285104,0 -0.570208,-0.231647 -0.267285,-0.213828 -0.231647,-0.71276 0.05346,-0.463294 0.249466,-1.229511 0.213828,-0.784036 0.53457,-1.728443 0.338561,-0.944407 0.71276,-1.942271 0.392018,-1.015683 0.784036,-1.9600902 0.392018,-0.962226 0.748398,-1.728443 0.35638,-0.784036 0.605846,-1.265149 0.160371,-0.285104 0.445475,-0.285104 0.160371,0 0.285104,0.124733 0.124733,0.106914 0.124733,0.320742 0,0.071276 -0.05346,0.302923 -0.03564,0.231647 -0.124733,0.481113 -0.07128,0.249466 -0.160371,0.409837 -0.17819,0.285104 -0.427656,0.588027 -0.249466,0.302923 -0.445475,0.71276 -0.427656,0.9265882 -0.855312,1.9600902 -0.427656,1.015683 -0.784036,1.995728 -0.35638,0.980045 -0.588027,1.764081 -0.213828,0.784036 -0.249466,1.24733 0,0.124733 0.106914,0.267285 0.124733,0.142552 0.231647,0.285104 0.124733,0.142552 0.124733,0.285104 0,0.142552 -0.17819,0.267285 -0.0891,0.07128 -0.285104,0.07128 z m 4.668574,-0.855312 q -0.106914,0 -0.213828,0 -0.106914,-0.01782 -0.213828,-0.03564 -0.730579,-0.0891 -1.140416,-0.694941 -0.392018,-0.623665 -0.392018,-1.389882 0,-0.498932 0.196009,-1.051321 0.213828,-0.570208 0.659303,-1.033502 0.445475,-0.481113 1.033502,-0.766217 0.588027,-0.285104 1.193873,-0.285104 0.302923,0 0.570208,0.07128 0.285104,0.07128 0.285104,0.285104 0,0.142552 -0.160371,0.285104 -0.142552,0.124733 -0.392018,0.07128 -0.07128,-0.01782 -0.231647,-0.01782 -0.427656,0 -0.873131,0.231647 -0.445475,0.231647 -0.801855,0.623665 -0.35638,0.374199 -0.516751,0.837493 -0.124733,0.35638 -0.124733,0.71276 0,0.552389 0.249466,0.944407 0.267285,0.392018 0.605846,0.392018 0.0891,0.01782 0.160371,0.01782 0.0891,0 0.160371,0 0.784036,0 1.496796,-0.427656 0.730579,-0.445475 1.122597,-0.962226 0.196009,-0.302923 0.267285,-0.53457 0.07128,-0.249466 0.07128,-0.409837 0,-0.35638 -0.213828,-0.481113 -0.213828,-0.124733 -0.392018,-0.106914 -0.285104,0.03564 -0.552389,0.0891 -0.267285,0.03564 -0.463294,0.124733 -0.106914,0.03564 -0.160371,0.03564 -0.17819,0 -0.302923,-0.142552 -0.106914,-0.142552 -0.106914,-0.302923 0,-0.285104 0.267285,-0.374199 0.249466,-0.0891 0.588027,-0.160371 0.338561,-0.07128 0.694941,-0.106914 0.07128,-0.01782 0.124733,-0.01782 0.05346,0 0.124733,0 0.641484,0 0.997864,0.392018 0.35638,0.374199 0.35638,0.926588 0,0.338561 -0.160371,0.730579 -0.160371,0.392018 -0.516751,0.748398 -0.320742,0.409837 -0.819674,0.819674 -0.498932,0.409837 -1.122597,0.694941 -0.623665,0.267285 -1.354244,0.267285 z m 12.063449,-0.231647 q -0.694941,-0.03564 -1.122597,-0.35638 -0.427656,-0.320742 -0.694941,-0.819674 -0.249466,-0.516751 -0.445475,-1.104778 -0.17819,-0.588027 -0.392018,-1.140416 -0.196009,0.17819 -0.53457,0.498932 -0.320742,0.302923 -0.694941,0.677122 -0.374199,0.374199 -0.71276,0.71276 -0.338561,0.338561 -0.552389,0.570208 -0.338561,0.374199 -0.766217,0.623665 -0.409837,0.249466 -0.730579,0.249466 -0.249466,0 -0.427656,-0.17819 -0.160371,-0.17819 -0.160371,-0.588027 0,-0.08909 0,-0.17819 0.01782,-0.0891 0.03564,-0.196009 0.160371,-0.980045 0.302923,-1.60371 0.142552,-0.623665 0.320742,-1.086959 0.196009,-0.481113 0.445475,-0.980045 0.160371,-0.285104 0.445475,-0.285104 0.160371,0 0.285104,0.124733 0.124733,0.106914 0.124733,0.338561 0,0.124733 -0.106914,0.481113 -0.106914,0.35638 -0.249466,0.588027 -0.17819,0.285104 -0.445475,0.980045 -0.249466,0.694941 -0.285104,1.532434 0.552389,-0.338561 1.140416,-0.908769 0.588027,-0.588027 1.193873,-1.158235 0.623665,-0.570208 1.229511,-0.837493 0.160371,-0.0891 0.320742,-0.142552 0.160371,-0.07128 0.285104,-0.07128 0.160371,0 0.249466,0.124733 0.106914,0.124733 0.124733,0.427656 0.01782,0.338561 0.124733,0.837493 0.124733,0.481113 0.338561,0.962226 0.231647,0.463294 0.552389,0.784036 0.338561,0.320742 0.801855,0.320742 0.35638,0 0.694941,-0.249466 0.338561,-0.249466 0.605846,-0.623665 0.267285,-0.392018 0.374199,-0.784036 0.0891,-0.320742 0.106914,-0.552389 0.03564,-0.231647 0.03564,-0.374199 0,-0.302923 -0.07128,-0.427656 -0.05346,-0.124733 -0.05346,-0.285104 0,-0.267285 0.160371,-0.409837 0.160371,-0.142552 0.338561,-0.142552 0.249466,0 0.463294,0.249466 0.231647,0.231647 0.231647,0.766217 0,0.445475 -0.17819,0.997864 -0.231647,0.71276 -0.694941,1.336425 -0.463294,0.605846 -0.997864,0.962226 -0.53457,0.35638 -1.015683,0.338561 z"
             id="path9" />
        </g>
      </g>
    </g>
  </switch>
</svg>
